# xmcd CD database file
#
# Track frame offsets:
#	150
#	19962
#	42862
#	62046
#	78949
#	99426
#	117605
#	142808
#	158949
#	177692
#	192595
#	209549
#	226264
#	241872
#	266434
#
# Disc length: 3784 seconds
#
# Revision: 0
# Processed by: cddbd v1.5.1PL2 Copyright (c) Steve Scherf et al.
# Submitted via: CDex 1.51
#
DISCID=d10ec60f
DTITLE=Various Artist - Simplemente Bachata
DYEAR=2005
DGENRE=Merengue
TTITLE0=Quien Eres Tu - Francisco
TTITLE1=Ay Hombe - El Aleman
TTITLE2=Hermanita - Juventud Libre
TTITLE3=Ven - Wellington
TTITLE4=La Chica De Mi Barrio - Dominican Joe
TTITLE5=Si Tu Estuvieras - Miguel
TTITLE6=Sin Ti - Romeo Y Julieta
TTITLE7=Te Amo - Richi
TTITLE8=No Te Vayas - Entre Amigos
TTITLE9=Helene - El Destino
TTITLE10=Se Dice - El Bohemio
TTITLE11=Hoy Es Adios - El Destino
TTITLE12=Serpiente - El Profesor
TTITLE13=Si No Te Tengo - El Paisano
TTITLE14=Amor Nocivo - El Destino
EXTD=YEAR: 2005
EXTT0=
EXTT1=
EXTT2=
EXTT3=
EXTT4=
EXTT5=
EXTT6=
EXTT7=
EXTT8=
EXTT9=
EXTT10=
EXTT11=
EXTT12=
EXTT13=
EXTT14=
PLAYORDER=
